<?xml version="1.0" encoding="UTF-8"?>
<svg id="Layer_2" data-name="Layer 2" xmlns="http://www.w3.org/2000/svg" viewBox="0 0 24 14">
  <defs>
    <style>
      .cls-1 {
        fill: none;
        stroke: #283c98;
        stroke-miterlimit: 10;
      }
    </style>
  </defs>
  <line class="cls-1" x1="9.91" y1="-18.89" x2="-15.3" y2="6.32"/>
  <line class="cls-1" x1="11.71" y1="-17.09" x2="-16.47" y2="11.09"/>
  <line class="cls-1" x1="13.51" y1="-15.29" x2="-18.58" y2="16.8"/>
  <line class="cls-1" x1="15.31" y1="-13.49" x2="-18.09" y2="19.91"/>
  <line class="cls-1" x1="17.11" y1="-11.69" x2="-20.23" y2="25.66"/>
  <line class="cls-1" x1="18.91" y1="-9.89" x2="-23.61" y2="32.63"/>
  <line class="cls-1" x1="20.71" y1="-8.09" x2="-21.81" y2="34.43"/>
  <line class="cls-1" x1="22.51" y1="-6.29" x2="-20.01" y2="36.23"/>
  <line class="cls-1" x1="24.31" y1="-4.49" x2="-.9" y2="20.72"/>
  <line class="cls-1" x1="26.11" y1="-2.69" x2="-2.07" y2="25.49"/>
  <line class="cls-1" x1="27.91" y1="-.89" x2="-4.18" y2="31.2"/>
  <line class="cls-1" x1="29.71" y1=".91" x2="-3.69" y2="34.31"/>
  <line class="cls-1" x1="31.51" y1="2.71" x2="-5.83" y2="40.06"/>
  <line class="cls-1" x1="33.31" y1="4.51" x2="-9.21" y2="47.03"/>
  <line class="cls-1" x1="35.11" y1="6.31" x2="-7.41" y2="48.83"/>
  <line class="cls-1" x1="36.91" y1="8.11" x2="-5.61" y2="50.63"/>
</svg>